<svg data-v-34a9d5f9="" xmlns="http://www.w3.org/2000/svg" width="100mm" height="181.956" viewBox="0 0 100 48.143" shape-rendering="geometricPrecision" text-rendering="geometricPrecision" image-rendering="optimizeQuality" fill-rule="evenodd" clip-rule="evenodd" class="page-header__logo"><defs data-v-34a9d5f9=""></defs><g data-v-34a9d5f9="" id="Layer_x0020_1"><g data-v-34a9d5f9="" id="_216008568"><path data-v-34a9d5f9="" id="_216003792" d="M69.104 16.477h-2.607v5.727c0 .716.11 1.364.335 1.941.22.577.552 1.083.99 1.521.438.439.947.766 1.524.98.577.217 1.222.324 1.938.324s1.368-.107 1.952-.324a4.193 4.193 0 001.531-.98c.439-.438.766-.944.98-1.52.217-.578.324-1.226.324-1.942v-5.727h-2.607v5.535c0 .374-.046.712-.146 1.012-.1.299-.25.559-.453.783a2.01 2.01 0 01-.694.53c-.26.118-.556.175-.887.175a2.13 2.13 0 01-.887-.174 2.01 2.01 0 01-.695-.53 2.174 2.174 0 01-.452-.784 3.304 3.304 0 01-.146-1.012v-5.535zm-18.78 8.078c-.395 0-.756-.074-1.075-.22a2.686 2.686 0 01-.87-.656 2.968 2.968 0 01-.594-.951 3.23 3.23 0 01-.196-1.143c0-.417.066-.798.196-1.144.129-.344.33-.66.594-.95.26-.286.546-.503.87-.645.32-.142.68-.21 1.075-.21.385 0 .738.067 1.058.21.32.142.61.356.866.644.256.288.449.606.577.951.127.345.192.727.192 1.144 0 .416-.065.798-.192 1.143-.128.345-.321.663-.577.95a2.628 2.628 0 01-.866.656c-.32.147-.673.221-1.058.221zm2.693 2.159h2.629V16.477h-2.629v1.026a3.743 3.743 0 00-1.36-.99 4.452 4.452 0 00-1.76-.335c-.705 0-1.35.128-1.938.384a4.55 4.55 0 00-1.567 1.154 5.35 5.35 0 00-1.058 1.753 6.21 6.21 0 00-.352 2.137c0 .78.119 1.496.356 2.144a5.05 5.05 0 001.075 1.724c.476.507.995.898 1.575 1.154a4.67 4.67 0 001.909.385c.64 0 1.222-.118 1.745-.353a3.86 3.86 0 001.375-1.058v1.112zm-15.185-3.505c0 .609.077 1.15.228 1.62.15.47.384.867.69 1.2.302.329.656.58 1.073.742.412.16.883.242 1.407.242.577 0 1.1-.087 1.567-.257a3.44 3.44 0 001.232-.77l-1.175-1.944a1.44 1.44 0 01-.527.385c-.2.084-.424.128-.67.128-.395 0-.69-.12-.883-.356-.194-.236-.292-.595-.292-1.076v-4.338h-2.65v4.424zm2.65-6.732v-2.65h-2.65v2.65h2.65zm-8.768 10.237h2.607V16.477h-2.607v10.237zm1.282-11.626c.428 0 .788-.155 1.09-.449.145-.142.262-.3.335-.477a1.54 1.54 0 00.114-.592c0-.406-.145-.775-.449-1.09a1.458 1.458 0 00-1.09-.448 1.442 1.442 0 00-1.069.449 1.537 1.537 0 00-.448 1.09c0 .213.04.41.114.59.073.178.189.338.335.478.15.146.314.26.495.335.177.073.37.114.573.114zm-2.91-4.23a3.34 3.34 0 00-.704-.35c-.49-.178-1.061-.271-1.713-.271-.577 0-1.097.093-1.553.274-.454.18-.854.465-1.182.837a3.749 3.749 0 00-.752 1.318c-.167.506-.253 1.088-.253 1.738v2.073h2.607v-2.094c0-.267.034-.509.097-.72a1.49 1.49 0 01.288-.541c.116-.136.263-.247.431-.317.17-.071.37-.11.595-.11.365 0 .694.082.985.249l1.154-2.086zm-6.157 7.927v7.929h2.607v-7.93H23.93zm34.66 4.424c0 .609.078 1.15.229 1.62.15.47.384.867.69 1.2.302.329.656.58 1.073.742.412.16.883.242 1.407.242.577 0 1.1-.087 1.567-.257.47-.17.88-.427 1.232-.77l-1.175-1.944c-.15.171-.325.3-.527.385-.2.084-.424.128-.67.128-.395 0-.69-.12-.883-.356-.194-.236-.292-.595-.292-1.076v-4.338h-2.65v4.424zm2.65-6.732v-2.65h-2.65v2.65h2.65z" class="fil0"></path><path data-v-34a9d5f9="" id="_216016608" fill="#ff8700" d="M37.832 16.477h5.398v2.308h-5.398z"></path><path data-v-34a9d5f9="" id="_215995656" fill="#24bd31" d="M23.929 16.477h5.398v2.308h-5.398z"></path><path data-v-34a9d5f9="" id="_216018360" fill="red" d="M58.59 16.477h5.398v2.308H58.59z"></path><path data-v-34a9d5f9="" id="_216008472" d="M51.556 34.646a1.28 1.28 0 00-.255.15.926.926 0 00-.22.233v-.397h-.707v3.254h.713v-1.804c0-.069.006-.134.017-.197a.847.847 0 01.235-.445.756.756 0 01.265-.163.917.917 0 01.326-.057c.12 0 .227.018.32.055a.625.625 0 01.24.165.692.692 0 01.15.268c.033.105.05.226.05.364v1.81h.713v-2.044a1.39 1.39 0 00-.099-.523 1.21 1.21 0 00-.274-.411 1.325 1.325 0 00-.954-.36 1.637 1.637 0 00-.394.05c-.045.013-.089.03-.133.048l.007.004zm-3.08.859a.961.961 0 01.214.333 1.16 1.16 0 01.058.645 1.006 1.006 0 01-.272.533.97.97 0 01-.326.214 1.081 1.081 0 01-.62.058.952.952 0 01-.195-.058.974.974 0 01-.448-.364 1.006 1.006 0 01-.15-.383 1.159 1.159 0 010-.442 1.003 1.003 0 01.15-.383.854.854 0 01.122-.153.974.974 0 01.326-.214 1.074 1.074 0 01.62-.058.966.966 0 01.195.058.97.97 0 01.326.214zm-2.347.071a1.643 1.643 0 00-.1.326 1.88 1.88 0 000 .707 1.645 1.645 0 00.467.866 1.687 1.687 0 00.886.463 2.01 2.01 0 00.727 0 1.75 1.75 0 00.893-.463 1.656 1.656 0 00.467-.866 1.881 1.881 0 000-.707 1.643 1.643 0 00-.467-.866 1.821 1.821 0 00-.893-.46 2 2 0 00-.727 0 1.74 1.74 0 00-.336.1 1.686 1.686 0 00-.917.9zm-.811-.682a1.87 1.87 0 00-.275-.145c-.1-.043-.207-.08-.32-.11a2.78 2.78 0 00-.723-.092c-.207 0-.394.024-.56.071-.083.024-.16.054-.23.088-.07.034-.134.072-.191.116a.948.948 0 00-.158.15.84.84 0 00-.183.386 1.145 1.145 0 00-.023.228c0 .132.024.25.071.357.047.106.117.2.21.282.094.081.21.148.347.201.137.054.297.093.48.118l.339.044c.193.027.336.071.428.133.045.03.08.065.102.104.022.038.034.08.034.127a.306.306 0 01-.047.165.386.386 0 01-.14.127.75.75 0 01-.232.081c-.092.018-.2.027-.322.027a2.46 2.46 0 01-.356-.027 1.578 1.578 0 01-.52-.176 2.252 2.252 0 01-.19-.13l-.33.534a1.723 1.723 0 00.37.214 2.844 2.844 0 00.381.129c.126.03.244.05.357.06.055.006.108.01.157.013.05.002.095.005.138.005.118 0 .229-.007.333-.02.105-.013.204-.032.295-.058.092-.026.177-.057.255-.094.077-.038.147-.08.21-.127a.976.976 0 00.289-.333.905.905 0 00.102-.428.88.88 0 00-.075-.371.752.752 0 00-.224-.28c-.1-.079-.22-.145-.359-.197a2.324 2.324 0 00-.476-.116l-.336-.051-.11-.017-.101-.02a.726.726 0 01-.17-.058.301.301 0 01-.112-.092.236.236 0 01-.04-.143.31.31 0 01.04-.157.375.375 0 01.122-.125.631.631 0 01.196-.081 1.12 1.12 0 01.26-.027c.05 0 .101.002.152.007a1.913 1.913 0 01.294.051 2.21 2.21 0 01.379.129c.035.017.069.032.1.048l.083.047.279-.567zm-4.666.105v-.367h-.704v3.253h.71v-1.79c0-.068.005-.134.015-.196a1.025 1.025 0 01.11-.324.666.666 0 01.486-.337.847.847 0 01.163-.015 1.362 1.362 0 01.415.068c.044.016.085.032.122.05l.17-.702a1.28 1.28 0 00-.255-.068 1.965 1.965 0 00-.295-.02 1.3 1.3 0 00-.54.109.936.936 0 00-.221.138 1.058 1.058 0 00-.183.204L40.65 35zm-2.3.985h-1.688c.017-.12.048-.228.092-.326a.846.846 0 01.173-.255.71.71 0 01.255-.163 1 1 0 01.645-.005.704.704 0 01.245.158c.071.07.13.154.175.252.046.099.077.212.097.339h.006zm-2.441.275c0 .258.04.492.122.703a1.547 1.547 0 00.343.54c.073.074.154.141.241.198.088.057.183.107.285.148.204.082.428.122.673.122a2.549 2.549 0 00.706-.102c.112-.034.22-.08.326-.14.106-.059.208-.131.31-.216l-.354-.506a1.63 1.63 0 01-.448.255 1.385 1.385 0 01-.49.091 1.217 1.217 0 01-.332-.047.817.817 0 01-.285-.15.843.843 0 01-.22-.255.883.883 0 01-.078-.173 1.348 1.348 0 01-.049-.203h2.404l.005-.064.006-.065c0-.023.002-.045.003-.066v-.067c0-.127-.009-.249-.028-.364a1.844 1.844 0 00-.219-.625 1.594 1.594 0 00-.177-.25 1.393 1.393 0 00-.49-.347 1.468 1.468 0 00-.298-.091 1.692 1.692 0 00-.326-.031c-.995 0-1.63.743-1.63 1.705zm-3.291-1.25v-.387h-.71v4.612h.71v-1.746a1.26 1.26 0 00.418.343c.082.043.174.075.275.096a1.67 1.67 0 00.965-.096 1.51 1.51 0 00.516-.356c.072-.076.137-.16.195-.25a1.77 1.77 0 00.276-.983 1.768 1.768 0 00-.276-.983 1.629 1.629 0 00-.435-.454 1.599 1.599 0 00-.916-.282c-.117 0-.226.012-.325.033-.101.022-.193.055-.275.096a1.256 1.256 0 00-.418.343v.014zm1.654.513a.943.943 0 01.194.333 1.228 1.228 0 010 .808.926.926 0 01-.335.454.906.906 0 01-.362.157c-.069.014-.141.02-.217.02a.943.943 0 01-.904-.628 1.216 1.216 0 01-.053-.63 1.035 1.035 0 01.254-.524.927.927 0 01.305-.221.945.945 0 01.398-.082c.076 0 .148.007.217.02a.922.922 0 01.503.283v.01zm-5.21-.89h-1.1v-.985h-.713v3.06c0 .216.026.403.077.563a.95.95 0 00.228.391.973.973 0 00.37.229c.143.051.307.077.493.077.103 0 .201-.008.295-.024.093-.014.18-.04.262-.071a2.45 2.45 0 00.445-.228l-.282-.567c-.05.03-.1.06-.153.085-.053.026-.109.05-.166.071a.9.9 0 01-.444.057.438.438 0 01-.32-.22.681.681 0 01-.08-.233 1.036 1.036 0 01-.009-.15V35.27h1.1l-.004-.639zm-3.766.367v-.367h-.703v3.253h.71v-1.79c0-.068.005-.134.015-.196.103-.64.751-.838 1.296-.557l.17-.703c-.507-.183-1.163-.114-1.495.363l.007-.003zm-1.817-.357h-.71v.394c-.247-.323-.612-.482-1.018-.482-.798 0-1.457.58-1.597 1.36a2.03 2.03 0 00-.03.358c0 .56.238 1.114.71 1.437.272.185.589.282.917.282.402 0 .767-.148 1.018-.476v.39h.71v-3.263zm-.665 1.613c0 .56-.388 1.043-.975 1.043-.588 0-.985-.457-.985-1.036 0-.478.276-.924.766-1.019.07-.013.142-.02.219-.02.6 0 .975.484.975 1.032zm-6.049-1.13c-.246-.385-.667-.574-1.12-.574-.389 0-.78.148-1.002.482v-.401h-.707v3.254h.713v-1.804c0-.49.34-.859.843-.859.21 0 .415.061.56.22.154.171.2.41.2.632v1.81h.714v-1.803c0-.491.338-.862.842-.862.211 0 .414.061.56.22.155.17.2.41.2.632v1.81h.714v-2.044a1.29 1.29 0 00-.374-.934 1.369 1.369 0 00-.954-.36c-.468 0-.936.164-1.189.58zm-3.742-.231a1.88 1.88 0 00-.275-.145c-.1-.043-.207-.08-.32-.11a2.79 2.79 0 00-.723-.092c-.207 0-.394.024-.56.072-.082.023-.16.053-.23.087-.07.033-.134.073-.191.116a.955.955 0 00-.158.15.838.838 0 00-.114.18.926.926 0 00-.069.206 1.128 1.128 0 00-.023.228c0 .132.025.25.072.357.046.106.117.2.21.282.093.08.209.148.347.201.136.053.296.094.478.118l.34.044c.194.025.337.072.428.133a.32.32 0 01.102.104.25.25 0 01.034.127.307.307 0 01-.047.165.391.391 0 01-.14.127.766.766 0 01-.232.081c-.091.018-.2.027-.322.027a1.894 1.894 0 01-.642-.099 1.82 1.82 0 01-.124-.048.95.95 0 01-.11-.056c-.033-.02-.066-.043-.098-.064a1.684 1.684 0 01-.092-.065l-.33.533a1.86 1.86 0 00.562.287 2.447 2.447 0 00.546.117c.055.005.109.01.157.012a2.66 2.66 0 00.471-.016c.105-.012.204-.031.296-.057a1.61 1.61 0 00.254-.094 1.27 1.27 0 00.21-.127.971.971 0 00.289-.333.909.909 0 00.102-.428.884.884 0 00-.074-.371.747.747 0 00-.225-.28c-.1-.079-.22-.145-.358-.197a2.411 2.411 0 00-.477-.116l-.336-.051-.109-.017c-.036-.006-.069-.014-.102-.02a.742.742 0 01-.17-.058.305.305 0 01-.112-.092.236.236 0 01-.04-.143c0-.057.014-.11.04-.157a.376.376 0 01.123-.124.619.619 0 01.195-.082c.076-.018.162-.027.26-.027a1.657 1.657 0 01.302.027 2.221 2.221 0 01.623.208l.083.047.279-.567zm74.415.135v-.397h-.706v3.254h.713v-1.804c0-.069.006-.134.017-.197a.86.86 0 01.13-.322.757.757 0 01.369-.285.922.922 0 01.326-.058c.12 0 .228.018.32.055a.627.627 0 01.24.165.692.692 0 01.15.268c.034.105.051.226.051.364v1.81h.713v-2.044a1.382 1.382 0 00-.099-.523 1.215 1.215 0 00-.274-.411 1.33 1.33 0 00-.422-.265 1.369 1.369 0 00-.254-.071 1.588 1.588 0 00-.279-.024c-.389 0-.77.15-.995.485zm-2.604.476a.967.967 0 01.214.333 1.16 1.16 0 01.058.645 1.006 1.006 0 01-.272.533.973.973 0 01-.326.214 1.08 1.08 0 01-.62.058.951.951 0 01-.195-.058.973.973 0 01-.449-.364 1.006 1.006 0 01-.15-.383 1.167 1.167 0 010-.442 1.003 1.003 0 01.15-.383.85.85 0 01.123-.153.973.973 0 01.326-.214 1.073 1.073 0 01.62-.058.967.967 0 01.195.058c.125.05.234.122.326.214zm-2.48.75c0 .123.012.24.033.354a1.652 1.652 0 00.467.866 1.683 1.683 0 00.886.463 2.011 2.011 0 00.727 0 1.748 1.748 0 00.893-.463 1.656 1.656 0 00.466-.866 1.881 1.881 0 000-.707 1.643 1.643 0 00-.466-.866 1.817 1.817 0 00-1.257-.492c-.964 0-1.749.728-1.749 1.711zm-.88-1.623h-.712v3.254h.713v-3.254zm-.712-1.48a.464.464 0 00-.13.254.501.501 0 000 .204.504.504 0 00.07.18.512.512 0 00.131.13.502.502 0 00.18.07.492.492 0 00.204 0 .474.474 0 00.394-.38.484.484 0 00-.03-.299.564.564 0 00-.11-.16.579.579 0 00-.255-.14.5.5 0 00-.454.14zm-1.013 1.48h-1.1v-.985h-.713v3.06c0 .216.026.403.077.563a.95.95 0 00.229.391.972.972 0 00.369.229c.144.051.308.077.493.077.103 0 .202-.008.296-.024.093-.014.18-.04.261-.071a2.461 2.461 0 00.445-.228l-.282-.567a1.838 1.838 0 01-.32.156.9.9 0 01-.443.057.438.438 0 01-.319-.22.681.681 0 01-.08-.233 1.036 1.036 0 01-.01-.15V35.27h1.1l-.003-.639zm-3.038 0H76v3.254h.713v-3.254zM76 33.152a.47.47 0 00-.13.254.501.501 0 000 .204.457.457 0 00.071.18.519.519 0 00.13.13.497.497 0 00.18.07.493.493 0 00.204 0 .474.474 0 00.394-.38.484.484 0 00-.03-.299.564.564 0 00-.11-.16.579.579 0 00-.255-.14.5.5 0 00-.454.14zm-2.03 1.847v-.367h-.704v3.254h.71v-1.79c0-.07.005-.135.015-.197a1.016 1.016 0 01.11-.324.662.662 0 01.336-.294.81.81 0 01.313-.058 1.36 1.36 0 01.415.068c.044.016.085.032.122.05l.17-.702c-.512-.185-1.166-.11-1.494.363l.006-.003zm-1.717-.367h-1.099v-.985h-.713v3.06c0 .216.026.403.077.563.05.16.127.29.228.391a.973.973 0 00.37.229c.143.051.307.077.493.077.103 0 .202-.008.296-.024.092-.014.18-.04.261-.071a2.448 2.448 0 00.445-.228l-.282-.567c-.05.03-.1.06-.153.085-.053.026-.108.05-.166.071a.9.9 0 01-.444.057.438.438 0 01-.32-.22.681.681 0 01-.08-.233 1.051 1.051 0 01-.009-.15V35.27h1.1l-.004-.639zm-2.783 0h-.713v1.81c0 .156-.02.289-.061.398a.645.645 0 01-.421.414.989.989 0 01-.316.047 1.085 1.085 0 01-.316-.047.634.634 0 01-.35-.266.792.792 0 01-.075-.148 1.138 1.138 0 01-.06-.398v-1.81h-.714v1.875c0 .129.011.249.033.36a1.323 1.323 0 00.246.56c.057.077.122.145.193.204a1.269 1.269 0 00.48.261 1.902 1.902 0 00.838.061c.094-.013.184-.034.275-.06a1.271 1.271 0 00.479-.262 1.378 1.378 0 00.433-.764c.02-.111.032-.231.032-.36l.017-1.875zm-6.384.397v-.397h-.707v3.254h.713v-1.804c0-.069.006-.134.017-.197a.854.854 0 01.13-.322.757.757 0 01.369-.285.922.922 0 01.326-.058c.12 0 .228.018.32.055a.627.627 0 01.24.165.692.692 0 01.15.268c.034.105.051.226.051.364v1.81h.713v-2.044a1.382 1.382 0 00-.099-.523 1.215 1.215 0 00-.274-.411 1.33 1.33 0 00-.421-.265 1.369 1.369 0 00-.255-.071 1.588 1.588 0 00-.278-.024c-.39 0-.772.15-.995.485zm-3.651-2.034h-.713v4.89h.713v-4.89zm-1.827 1.647h-.71v.394a1.293 1.293 0 00-.188-.197 1.354 1.354 0 00-.23-.153 1.267 1.267 0 00-.6-.132 1.664 1.664 0 00-.64.129 1.68 1.68 0 00-.277.153 1.63 1.63 0 00-.434.454 1.77 1.77 0 00-.276.983 1.77 1.77 0 00.276.983 1.559 1.559 0 00.712.606 1.656 1.656 0 00.964.096c.1-.022.191-.053.275-.096.167-.085.306-.2.418-.347v.39h.71v-3.263zm-.684 1.397a1.225 1.225 0 010 .433 1.047 1.047 0 01-.254.524.927.927 0 01-.305.22.943.943 0 01-.398.082c-.077 0-.149-.007-.218-.02a.917.917 0 01-.698-.612 1.242 1.242 0 01-.051-.612 1.24 1.24 0 01.05-.196.927.927 0 01.194-.333.92.92 0 01.505-.282c.07-.013.141-.02.218-.02.49 0 .88.345.957.816z" class="fil0"></path></g></g></svg>